<svg width="641" height="208" viewBox="0 0 641 208" fill="none" xmlns="http://www.w3.org/2000/svg">
<path d="M5.312 62V17.2H13.888L32.96 48.816H28.416L47.168 17.2H55.68L55.808 62H46.08L46.016 32.112H47.808L32.832 57.264H28.16L12.864 32.112H15.04V62H5.312ZM70.085 74.928C68.293 74.928 66.5223 74.6507 64.773 74.096C63.0237 73.5413 61.5943 72.7733 60.485 71.792L64.133 64.688C64.901 65.3707 65.7757 65.904 66.757 66.288C67.781 66.672 68.7837 66.864 69.765 66.864C71.173 66.864 72.2823 66.5227 73.093 65.84C73.9463 65.2 74.7143 64.112 75.397 62.576L77.189 58.352L77.957 57.264L90.309 27.568H99.909L84.357 64.112C83.2477 66.8853 81.9677 69.0613 80.517 70.64C79.109 72.2187 77.5303 73.328 75.781 73.968C74.0743 74.608 72.1757 74.928 70.085 74.928ZM75.973 63.344L60.613 27.568H70.917L82.821 56.368L75.973 63.344ZM137.532 62.768C133.948 62.768 130.513 62.2987 127.228 61.36C123.943 60.3787 121.297 59.12 119.292 57.584L122.812 49.776C124.732 51.1413 126.993 52.272 129.596 53.168C132.241 54.0213 134.908 54.448 137.596 54.448C139.644 54.448 141.287 54.256 142.524 53.872C143.804 53.4453 144.743 52.8693 145.34 52.144C145.937 51.4187 146.236 50.5867 146.236 49.648C146.236 48.4533 145.767 47.5147 144.828 46.832C143.889 46.1067 142.652 45.5307 141.116 45.104C139.58 44.6347 137.873 44.208 135.996 43.824C134.161 43.3973 132.305 42.8853 130.428 42.288C128.593 41.6907 126.908 40.9227 125.372 39.984C123.836 39.0453 122.577 37.808 121.596 36.272C120.657 34.736 120.188 32.7733 120.188 30.384C120.188 27.824 120.871 25.4987 122.236 23.408C123.644 21.2747 125.735 19.5893 128.508 18.352C131.324 17.072 134.844 16.432 139.068 16.432C141.884 16.432 144.657 16.7733 147.388 17.456C150.119 18.096 152.529 19.0773 154.62 20.4L151.42 28.272C149.329 27.0773 147.239 26.2027 145.148 25.648C143.057 25.0507 141.009 24.752 139.004 24.752C136.999 24.752 135.356 24.9867 134.076 25.456C132.796 25.9253 131.879 26.544 131.324 27.312C130.769 28.0373 130.492 28.8907 130.492 29.872C130.492 31.024 130.961 31.9627 131.9 32.688C132.839 33.3707 134.076 33.9253 135.612 34.352C137.148 34.7787 138.833 35.2053 140.668 35.632C142.545 36.0587 144.401 36.5493 146.236 37.104C148.113 37.6587 149.82 38.4053 151.356 39.344C152.892 40.2827 154.129 41.52 155.068 43.056C156.049 44.592 156.54 46.5333 156.54 48.88C156.54 51.3973 155.836 53.7013 154.428 55.792C153.02 57.8827 150.908 59.568 148.092 60.848C145.319 62.128 141.799 62.768 137.532 62.768ZM171.177 54.96L171.433 42.8L187.497 27.568H199.401L183.977 43.248L178.793 47.472L171.177 54.96ZM162.921 62V14.512H172.905V62H162.921ZM188.585 62L176.937 47.536L183.209 39.792L200.681 62H188.585ZM205.171 62V27.568H215.155V62H205.171ZM210.163 22.768C208.328 22.768 206.835 22.2347 205.683 21.168C204.531 20.1013 203.955 18.7787 203.955 17.2C203.955 15.6213 204.531 14.2987 205.683 13.232C206.835 12.1653 208.328 11.632 210.163 11.632C211.997 11.632 213.491 12.144 214.643 13.168C215.795 14.1493 216.371 15.4293 216.371 17.008C216.371 18.672 215.795 20.0587 214.643 21.168C213.533 22.2347 212.04 22.768 210.163 22.768ZM224.421 62V14.512H234.405V62H224.421ZM243.671 62V14.512H253.655V62H243.671ZM274.505 62.512C271.561 62.512 268.723 62.1707 265.993 61.488C263.305 60.7627 261.171 59.8667 259.593 58.8L262.921 51.632C264.499 52.6133 266.355 53.424 268.489 54.064C270.665 54.6613 272.798 54.96 274.889 54.96C277.193 54.96 278.814 54.6827 279.753 54.128C280.734 53.5733 281.225 52.8053 281.225 51.824C281.225 51.0133 280.841 50.416 280.073 50.032C279.347 49.6053 278.366 49.2853 277.128 49.072C275.891 48.8587 274.526 48.6453 273.033 48.432C271.582 48.2187 270.11 47.9413 268.617 47.6C267.123 47.216 265.758 46.6613 264.521 45.936C263.283 45.2107 262.281 44.2293 261.513 42.992C260.787 41.7547 260.424 40.1547 260.424 38.192C260.424 36.016 261.043 34.096 262.281 32.432C263.561 30.768 265.395 29.4667 267.785 28.528C270.174 27.5467 273.033 27.056 276.361 27.056C278.707 27.056 281.097 27.312 283.529 27.824C285.961 28.336 287.987 29.0827 289.609 30.064L286.281 37.168C284.617 36.1867 282.931 35.5253 281.225 35.184C279.561 34.8 277.939 34.608 276.361 34.608C274.142 34.608 272.521 34.9067 271.497 35.504C270.473 36.1013 269.961 36.8693 269.961 37.808C269.961 38.6613 270.323 39.3013 271.049 39.728C271.817 40.1547 272.819 40.496 274.057 40.752C275.294 41.008 276.638 41.2427 278.089 41.456C279.582 41.6267 281.075 41.904 282.569 42.288C284.062 42.672 285.406 43.2267 286.601 43.952C287.838 44.6347 288.841 45.5947 289.609 46.832C290.377 48.0267 290.761 49.6053 290.761 51.568C290.761 53.7013 290.121 55.6 288.841 57.264C287.561 58.8853 285.705 60.1653 283.273 61.104C280.883 62.0427 277.961 62.512 274.505 62.512Z" fill="#041A40"/>
<mask id="path-2-outside-1_60_8" maskUnits="userSpaceOnUse" x="76" y="88" width="325" height="35" fill="black">
<rect fill="white" x="76" y="88" width="325" height="35"/>
<path d="M82.424 101.624H93.208V105.656H82.424V101.624ZM82.808 110.84H95V115H77.656V92.6H94.584V96.76H82.808V110.84ZM96.4093 115L104.121 104.888L104.025 107.64L96.6333 97.784H102.233L106.905 104.216L104.793 104.28L109.625 97.784H114.937L107.513 107.544V104.856L115.193 115H109.529L104.633 108.152L106.713 108.44L101.849 115H96.4093ZM127.793 115.256C126.342 115.256 125.073 114.936 123.985 114.296C122.897 113.656 122.043 112.685 121.425 111.384C120.827 110.061 120.529 108.397 120.529 106.392C120.529 104.365 120.817 102.701 121.393 101.4C121.969 100.099 122.801 99.128 123.889 98.488C124.977 97.848 126.278 97.528 127.793 97.528C129.414 97.528 130.865 97.9013 132.145 98.648C133.446 99.3733 134.47 100.397 135.217 101.72C135.985 103.043 136.369 104.6 136.369 106.392C136.369 108.205 135.985 109.773 135.217 111.096C134.47 112.419 133.446 113.443 132.145 114.168C130.865 114.893 129.414 115.256 127.793 115.256ZM117.617 121.208V97.784H122.385V101.304L122.289 106.424L122.609 111.512V121.208H117.617ZM126.929 111.16C127.761 111.16 128.497 110.968 129.137 110.584C129.798 110.2 130.321 109.656 130.705 108.952C131.11 108.227 131.312 107.373 131.312 106.392C131.312 105.389 131.11 104.536 130.705 103.832C130.321 103.128 129.798 102.584 129.137 102.2C128.497 101.816 127.761 101.624 126.929 101.624C126.097 101.624 125.35 101.816 124.689 102.2C124.027 102.584 123.505 103.128 123.121 103.832C122.737 104.536 122.545 105.389 122.545 106.392C122.545 107.373 122.737 108.227 123.121 108.952C123.505 109.656 124.027 110.2 124.689 110.584C125.35 110.968 126.097 111.16 126.929 111.16ZM139.71 115V91.256H144.702V115H139.71ZM157.527 115.256C155.693 115.256 154.061 114.872 152.631 114.104C151.223 113.336 150.103 112.291 149.271 110.968C148.461 109.624 148.055 108.099 148.055 106.392C148.055 104.664 148.461 103.139 149.271 101.816C150.103 100.472 151.223 99.4267 152.631 98.68C154.061 97.912 155.693 97.528 157.527 97.528C159.341 97.528 160.962 97.912 162.391 98.68C163.821 99.4267 164.941 100.461 165.751 101.784C166.562 103.107 166.967 104.643 166.967 106.392C166.967 108.099 166.562 109.624 165.751 110.968C164.941 112.291 163.821 113.336 162.391 114.104C160.962 114.872 159.341 115.256 157.527 115.256ZM157.527 111.16C158.359 111.16 159.106 110.968 159.767 110.584C160.429 110.2 160.951 109.656 161.335 108.952C161.719 108.227 161.911 107.373 161.911 106.392C161.911 105.389 161.719 104.536 161.335 103.832C160.951 103.128 160.429 102.584 159.767 102.2C159.106 101.816 158.359 101.624 157.527 101.624C156.695 101.624 155.949 101.816 155.287 102.2C154.626 102.584 154.093 103.128 153.687 103.832C153.303 104.536 153.111 105.389 153.111 106.392C153.111 107.373 153.303 108.227 153.687 108.952C154.093 109.656 154.626 110.2 155.287 110.584C155.949 110.968 156.695 111.16 157.527 111.16ZM170.304 115V97.784H175.072V102.648L174.4 101.24C174.912 100.024 175.733 99.1067 176.864 98.488C177.995 97.848 179.371 97.528 180.992 97.528V102.136C180.779 102.115 180.587 102.104 180.416 102.104C180.245 102.083 180.064 102.072 179.872 102.072C178.507 102.072 177.397 102.467 176.544 103.256C175.712 104.024 175.296 105.229 175.296 106.872V115H170.304ZM192.379 115.256C190.417 115.256 188.689 114.872 187.195 114.104C185.723 113.336 184.582 112.291 183.771 110.968C182.961 109.624 182.555 108.099 182.555 106.392C182.555 104.664 182.95 103.139 183.739 101.816C184.55 100.472 185.649 99.4267 187.035 98.68C188.422 97.912 189.99 97.528 191.739 97.528C193.425 97.528 194.939 97.8907 196.283 98.616C197.649 99.32 198.726 100.344 199.515 101.688C200.305 103.011 200.699 104.6 200.699 106.456C200.699 106.648 200.689 106.872 200.667 107.128C200.646 107.363 200.625 107.587 200.603 107.8H186.619V104.888H197.979L196.059 105.752C196.059 104.856 195.878 104.077 195.515 103.416C195.153 102.755 194.651 102.243 194.011 101.88C193.371 101.496 192.625 101.304 191.771 101.304C190.918 101.304 190.161 101.496 189.499 101.88C188.859 102.243 188.358 102.765 187.995 103.448C187.633 104.109 187.451 104.899 187.451 105.816V106.584C187.451 107.523 187.654 108.355 188.059 109.08C188.486 109.784 189.073 110.328 189.819 110.712C190.587 111.075 191.483 111.256 192.507 111.256C193.425 111.256 194.225 111.117 194.907 110.84C195.611 110.563 196.251 110.147 196.827 109.592L199.483 112.472C198.694 113.368 197.702 114.061 196.507 114.552C195.313 115.021 193.937 115.256 192.379 115.256ZM235.133 97.528C236.499 97.528 237.704 97.8053 238.749 98.36C239.816 98.8933 240.648 99.7253 241.245 100.856C241.864 101.965 242.173 103.395 242.173 105.144V115H237.181V105.912C237.181 104.525 236.893 103.501 236.317 102.84C235.741 102.179 234.931 101.848 233.885 101.848C233.16 101.848 232.509 102.019 231.933 102.36C231.357 102.68 230.909 103.171 230.589 103.832C230.269 104.493 230.109 105.336 230.109 106.36V115H225.117V105.912C225.117 104.525 224.829 103.501 224.253 102.84C223.699 102.179 222.899 101.848 221.853 101.848C221.128 101.848 220.477 102.019 219.901 102.36C219.325 102.68 218.877 103.171 218.557 103.832C218.237 104.493 218.077 105.336 218.077 106.36V115H213.085V97.784H217.853V102.488L216.957 101.112C217.555 99.9387 218.397 99.0533 219.485 98.456C220.595 97.8373 221.853 97.528 223.261 97.528C224.84 97.528 226.216 97.9333 227.389 98.744C228.584 99.5333 229.373 100.749 229.757 102.392L227.997 101.912C228.573 100.568 229.491 99.5013 230.749 98.712C232.029 97.9227 233.491 97.528 235.133 97.528ZM248.511 121.464C247.615 121.464 246.73 121.325 245.855 121.048C244.981 120.771 244.266 120.387 243.711 119.896L245.535 116.344C245.919 116.685 246.357 116.952 246.847 117.144C247.359 117.336 247.861 117.432 248.351 117.432C249.055 117.432 249.61 117.261 250.015 116.92C250.442 116.6 250.826 116.056 251.167 115.288L252.063 113.176L252.447 112.632L258.623 97.784H263.423L255.647 116.056C255.093 117.443 254.453 118.531 253.727 119.32C253.023 120.109 252.234 120.664 251.359 120.984C250.506 121.304 249.557 121.464 248.511 121.464ZM251.455 115.672L243.775 97.784H248.927L254.879 112.184L251.455 115.672ZM280.315 115.256C278.843 115.256 277.424 115.085 276.059 114.744C274.715 114.381 273.648 113.933 272.859 113.4L274.523 109.816C275.312 110.307 276.24 110.712 277.307 111.032C278.395 111.331 279.461 111.48 280.507 111.48C281.659 111.48 282.469 111.341 282.939 111.064C283.429 110.787 283.675 110.403 283.675 109.912C283.675 109.507 283.483 109.208 283.099 109.016C282.736 108.803 282.245 108.643 281.627 108.536C281.008 108.429 280.325 108.323 279.579 108.216C278.853 108.109 278.117 107.971 277.371 107.8C276.624 107.608 275.941 107.331 275.323 106.968C274.704 106.605 274.203 106.115 273.819 105.496C273.456 104.877 273.275 104.077 273.275 103.096C273.275 102.008 273.584 101.048 274.203 100.216C274.843 99.384 275.76 98.7333 276.955 98.264C278.149 97.7733 279.579 97.528 281.243 97.528C282.416 97.528 283.611 97.656 284.827 97.912C286.043 98.168 287.056 98.5413 287.867 99.032L286.203 102.584C285.371 102.093 284.528 101.763 283.675 101.592C282.843 101.4 282.032 101.304 281.243 101.304C280.133 101.304 279.323 101.453 278.811 101.752C278.299 102.051 278.043 102.435 278.043 102.904C278.043 103.331 278.224 103.651 278.587 103.864C278.971 104.077 279.472 104.248 280.091 104.376C280.709 104.504 281.381 104.621 282.107 104.728C282.853 104.813 283.6 104.952 284.347 105.144C285.093 105.336 285.765 105.613 286.363 105.976C286.981 106.317 287.483 106.797 287.867 107.416C288.251 108.013 288.443 108.803 288.443 109.784C288.443 110.851 288.123 111.8 287.483 112.632C286.843 113.443 285.915 114.083 284.699 114.552C283.504 115.021 282.043 115.256 280.315 115.256ZM295.651 111.48L295.779 105.4L303.811 97.784H309.763L302.051 105.624L299.459 107.736L295.651 111.48ZM291.523 115V91.256H296.515V115H291.523ZM304.355 115L298.531 107.768L301.667 103.896L310.403 115H304.355ZM312.648 115V97.784H317.64V115H312.648ZM315.144 95.384C314.226 95.384 313.48 95.1173 312.904 94.584C312.328 94.0507 312.04 93.3893 312.04 92.6C312.04 91.8107 312.328 91.1493 312.904 90.616C313.48 90.0827 314.226 89.816 315.144 89.816C316.061 89.816 316.808 90.072 317.384 90.584C317.96 91.0747 318.248 91.7147 318.248 92.504C318.248 93.336 317.96 94.0293 317.384 94.584C316.829 95.1173 316.082 95.384 315.144 95.384ZM322.273 115V91.256H327.265V115H322.273ZM331.898 115V91.256H336.89V115H331.898ZM347.315 115.256C345.843 115.256 344.424 115.085 343.059 114.744C341.715 114.381 340.648 113.933 339.859 113.4L341.523 109.816C342.312 110.307 343.24 110.712 344.307 111.032C345.395 111.331 346.461 111.48 347.507 111.48C348.659 111.48 349.469 111.341 349.939 111.064C350.429 110.787 350.675 110.403 350.675 109.912C350.675 109.507 350.483 109.208 350.099 109.016C349.736 108.803 349.245 108.643 348.627 108.536C348.008 108.429 347.325 108.323 346.579 108.216C345.853 108.109 345.117 107.971 344.371 107.8C343.624 107.608 342.941 107.331 342.323 106.968C341.704 106.605 341.203 106.115 340.819 105.496C340.456 104.877 340.275 104.077 340.275 103.096C340.275 102.008 340.584 101.048 341.203 100.216C341.843 99.384 342.76 98.7333 343.955 98.264C345.149 97.7733 346.579 97.528 348.243 97.528C349.416 97.528 350.611 97.656 351.827 97.912C353.043 98.168 354.056 98.5413 354.867 99.032L353.203 102.584C352.371 102.093 351.528 101.763 350.675 101.592C349.843 101.4 349.032 101.304 348.243 101.304C347.133 101.304 346.323 101.453 345.811 101.752C345.299 102.051 345.043 102.435 345.043 102.904C345.043 103.331 345.224 103.651 345.587 103.864C345.971 104.077 346.472 104.248 347.091 104.376C347.709 104.504 348.381 104.621 349.107 104.728C349.853 104.813 350.6 104.952 351.347 105.144C352.093 105.336 352.765 105.613 353.363 105.976C353.981 106.317 354.483 106.797 354.867 107.416C355.251 108.013 355.443 108.803 355.443 109.784C355.443 110.851 355.123 111.8 354.483 112.632C353.843 113.443 352.915 114.083 351.699 114.552C350.504 115.021 349.043 115.256 347.315 115.256ZM375.777 115.256C373.943 115.256 372.311 114.872 370.881 114.104C369.473 113.336 368.353 112.291 367.521 110.968C366.711 109.624 366.305 108.099 366.305 106.392C366.305 104.664 366.711 103.139 367.521 101.816C368.353 100.472 369.473 99.4267 370.881 98.68C372.311 97.912 373.943 97.528 375.777 97.528C377.591 97.528 379.212 97.912 380.641 98.68C382.071 99.4267 383.191 100.461 384.001 101.784C384.812 103.107 385.217 104.643 385.217 106.392C385.217 108.099 384.812 109.624 384.001 110.968C383.191 112.291 382.071 113.336 380.641 114.104C379.212 114.872 377.591 115.256 375.777 115.256ZM375.777 111.16C376.609 111.16 377.356 110.968 378.017 110.584C378.679 110.2 379.201 109.656 379.585 108.952C379.969 108.227 380.161 107.373 380.161 106.392C380.161 105.389 379.969 104.536 379.585 103.832C379.201 103.128 378.679 102.584 378.017 102.2C377.356 101.816 376.609 101.624 375.777 101.624C374.945 101.624 374.199 101.816 373.537 102.2C372.876 102.584 372.343 103.128 371.937 103.832C371.553 104.536 371.361 105.389 371.361 106.392C371.361 107.373 371.553 108.227 371.937 108.952C372.343 109.656 372.876 110.2 373.537 110.584C374.199 110.968 374.945 111.16 375.777 111.16ZM389.162 115V97.4C389.162 95.4587 389.738 93.912 390.89 92.76C392.042 91.5867 393.685 91 395.818 91C396.543 91 397.237 91.0747 397.898 91.224C398.581 91.3733 399.157 91.608 399.626 91.928L398.314 95.544C398.037 95.352 397.727 95.2027 397.386 95.096C397.045 94.9893 396.682 94.936 396.298 94.936C395.573 94.936 395.007 95.1493 394.602 95.576C394.218 95.9813 394.026 96.6 394.026 97.432V99.032L394.154 101.176V115H389.162ZM386.506 102.008V98.168H398.442V102.008H386.506Z"/>
</mask>
<path d="M82.424 101.624V100.624H81.424V101.624H82.424ZM93.208 101.624H94.208V100.624H93.208V101.624ZM93.208 105.656V106.656H94.208V105.656H93.208ZM82.424 105.656H81.424V106.656H82.424V105.656ZM82.808 110.84H81.808V111.84H82.808V110.84ZM95 110.84H96V109.84H95V110.84ZM95 115V116H96V115H95ZM77.656 115H76.656V116H77.656V115ZM77.656 92.6V91.6H76.656V92.6H77.656ZM94.584 92.6H95.584V91.6H94.584V92.6ZM94.584 96.76V97.76H95.584V96.76H94.584ZM82.808 96.76V95.76H81.808V96.76H82.808ZM82.424 102.624H93.208V100.624H82.424V102.624ZM92.208 101.624V105.656H94.208V101.624H92.208ZM93.208 104.656H82.424V106.656H93.208V104.656ZM83.424 105.656V101.624H81.424V105.656H83.424ZM82.808 111.84H95V109.84H82.808V111.84ZM94 110.84V115H96V110.84H94ZM95 114H77.656V116H95V114ZM78.656 115V92.6H76.656V115H78.656ZM77.656 93.6H94.584V91.6H77.656V93.6ZM93.584 92.6V96.76H95.584V92.6H93.584ZM94.584 95.76H82.808V97.76H94.584V95.76ZM81.808 96.76V110.84H83.808V96.76H81.808ZM96.4093 115L95.6141 114.394L94.389 116H96.4093V115ZM104.121 104.888L105.121 104.923L105.23 101.785L103.326 104.282L104.121 104.888ZM104.025 107.64L103.225 108.24L104.926 110.507L105.025 107.675L104.025 107.64ZM96.6333 97.784V96.784H94.6333L95.8333 98.384L96.6333 97.784ZM102.233 97.784L103.042 97.1963L102.743 96.784H102.233V97.784ZM106.905 104.216L106.936 105.216L108.826 105.158L107.714 103.628L106.905 104.216ZM104.793 104.28L103.991 103.683L102.757 105.342L104.824 105.28L104.793 104.28ZM109.625 97.784V96.784H109.123L108.823 97.1872L109.625 97.784ZM114.937 97.784L115.733 98.3894L116.954 96.784H114.937V97.784ZM107.513 107.544H106.513V110.51L108.309 108.149L107.513 107.544ZM107.513 104.856L108.311 104.252L106.513 101.878V104.856H107.513ZM115.193 115V116H117.205L115.991 114.396L115.193 115ZM109.529 115L108.716 115.582L109.015 116H109.529V115ZM104.633 108.152L104.77 107.161L102.468 106.843L103.82 108.734L104.633 108.152ZM106.713 108.44L107.517 109.036L108.521 107.681L106.85 107.449L106.713 108.44ZM101.849 115V116H102.353L102.653 115.596L101.849 115ZM97.2044 115.606L104.916 105.494L103.326 104.282L95.6141 114.394L97.2044 115.606ZM103.122 104.853L103.026 107.605L105.025 107.675L105.121 104.923L103.122 104.853ZM104.825 107.04L97.4333 97.184L95.8333 98.384L103.225 108.24L104.825 107.04ZM96.6333 98.784H102.233V96.784H96.6333V98.784ZM101.424 98.3717L106.096 104.804L107.714 103.628L103.042 97.1963L101.424 98.3717ZM106.875 103.216L104.763 103.28L104.824 105.28L106.936 105.216L106.875 103.216ZM105.596 104.877L110.428 98.3808L108.823 97.1872L103.991 103.683L105.596 104.877ZM109.625 98.784H114.937V96.784H109.625V98.784ZM114.141 97.1786L106.717 106.939L108.309 108.149L115.733 98.3894L114.141 97.1786ZM108.513 107.544V104.856H106.513V107.544H108.513ZM106.716 105.46L114.396 115.604L115.991 114.396L108.311 104.252L106.716 105.46ZM115.193 114H109.529V116H115.193V114ZM110.343 114.418L105.447 107.57L103.82 108.734L108.716 115.582L110.343 114.418ZM104.496 109.143L106.576 109.431L106.85 107.449L104.77 107.161L104.496 109.143ZM105.91 107.844L101.046 114.404L102.653 115.596L107.517 109.036L105.91 107.844ZM101.849 114H96.4093V116H101.849V114ZM123.985 114.296L124.492 113.434L124.492 113.434L123.985 114.296ZM121.425 111.384L120.513 111.796L120.517 111.805L120.521 111.813L121.425 111.384ZM121.393 101.4L122.307 101.805L122.307 101.805L121.393 101.4ZM123.889 98.488L123.381 97.6261L123.381 97.6261L123.889 98.488ZM132.145 98.648L131.641 99.5118L131.649 99.5167L131.658 99.5215L132.145 98.648ZM135.217 101.72L134.346 102.212L134.352 102.222L135.217 101.72ZM135.217 111.096L134.352 110.594L134.346 110.604L135.217 111.096ZM132.145 114.168L131.658 113.294L131.651 113.298L132.145 114.168ZM117.617 121.208H116.617V122.208H117.617V121.208ZM117.617 97.784V96.784H116.617V97.784H117.617ZM122.385 97.784H123.385V96.784H122.385V97.784ZM122.385 101.304L123.384 101.323L123.385 101.313V101.304H122.385ZM122.289 106.424L121.289 106.405L121.288 106.446L121.29 106.487L122.289 106.424ZM122.609 111.512H123.609V111.481L123.607 111.449L122.609 111.512ZM122.609 121.208V122.208H123.609V121.208H122.609ZM129.137 110.584L128.634 109.719L128.628 109.723L128.622 109.727L129.137 110.584ZM130.705 108.952L129.832 108.464L129.827 108.473L130.705 108.952ZM130.705 103.832L129.827 104.311L129.832 104.321L129.838 104.331L130.705 103.832ZM129.137 102.2L128.622 103.057L128.628 103.061L128.634 103.065L129.137 102.2ZM124.689 102.2L125.191 103.065L125.191 103.065L124.689 102.2ZM123.121 103.832L123.998 104.311L123.998 104.311L123.121 103.832ZM123.121 108.952L122.237 109.42L122.243 109.431L123.121 108.952ZM124.689 110.584L125.191 109.719L125.191 109.719L124.689 110.584ZM127.793 114.256C126.493 114.256 125.404 113.971 124.492 113.434L123.477 115.158C124.741 115.901 126.191 116.256 127.793 116.256V114.256ZM124.492 113.434C123.599 112.909 122.873 112.102 122.328 110.955L120.521 111.813C121.213 113.269 122.194 114.403 123.477 115.158L124.492 113.434ZM122.336 110.972C121.815 109.819 121.529 108.306 121.529 106.392H119.529C119.529 108.488 119.84 110.304 120.513 111.796L122.336 110.972ZM121.529 106.392C121.529 104.45 121.806 102.937 122.307 101.805L120.478 100.995C119.827 102.466 119.529 104.281 119.529 106.392H121.529ZM122.307 101.805C122.81 100.669 123.51 99.8706 124.396 99.3499L123.381 97.6261C122.091 98.3854 121.127 99.5281 120.478 100.995L122.307 101.805ZM124.396 99.3499C125.302 98.8169 126.42 98.528 127.793 98.528V96.528C126.135 96.528 124.651 96.8791 123.381 97.6261L124.396 99.3499ZM127.793 98.528C129.254 98.528 130.528 98.8626 131.641 99.5118L132.648 97.7842C131.201 96.9401 129.574 96.528 127.793 96.528V98.528ZM131.658 99.5215C132.795 100.155 133.688 101.046 134.346 102.212L136.087 101.228C135.252 99.7488 134.097 98.5912 132.631 97.7745L131.658 99.5215ZM134.352 102.222C135.017 103.368 135.369 104.746 135.369 106.392H137.369C137.369 104.454 136.952 102.717 136.081 101.218L134.352 102.222ZM135.369 106.392C135.369 108.062 135.016 109.45 134.352 110.594L136.081 111.598C136.953 110.097 137.369 108.349 137.369 106.392H135.369ZM134.346 110.604C133.688 111.77 132.795 112.661 131.658 113.295L132.631 115.041C134.097 114.225 135.252 113.067 136.087 111.588L134.346 110.604ZM131.651 113.298C130.537 113.93 129.259 114.256 127.793 114.256V116.256C129.569 116.256 131.192 115.857 132.638 115.038L131.651 113.298ZM118.617 121.208V97.784H116.617V121.208H118.617ZM117.617 98.784H122.385V96.784H117.617V98.784ZM121.385 97.784V101.304H123.385V97.784H121.385ZM121.385 101.285L121.289 106.405L123.288 106.443L123.384 101.323L121.385 101.285ZM121.29 106.487L121.61 111.575L123.607 111.449L123.287 106.361L121.29 106.487ZM121.609 111.512V121.208H123.609V111.512H121.609ZM122.609 120.208H117.617V122.208H122.609V120.208ZM126.929 112.16C127.92 112.16 128.838 111.929 129.651 111.441L128.622 109.727C128.155 110.007 127.601 110.16 126.929 110.16V112.16ZM129.639 111.449C130.466 110.968 131.115 110.287 131.582 109.431L129.827 108.473C129.526 109.025 129.13 109.432 128.634 109.719L129.639 111.449ZM131.577 109.44C132.08 108.54 132.312 107.513 132.312 106.392H130.312C130.312 107.234 130.14 107.913 129.832 108.464L131.577 109.44ZM132.312 106.392C132.312 105.255 132.082 104.221 131.571 103.333L129.838 104.331C130.138 104.851 130.312 105.524 130.312 106.392H132.312ZM131.582 103.353C131.115 102.497 130.466 101.816 129.639 101.335L128.634 103.065C129.13 103.352 129.526 103.759 129.827 104.311L131.582 103.353ZM129.651 101.343C128.838 100.855 127.92 100.624 126.929 100.624V102.624C127.601 102.624 128.155 102.777 128.622 103.057L129.651 101.343ZM126.929 100.624C125.936 100.624 125.013 100.855 124.186 101.335L125.191 103.065C125.686 102.777 126.257 102.624 126.929 102.624V100.624ZM124.186 101.335C123.359 101.816 122.71 102.497 122.243 103.353L123.998 104.311C124.299 103.759 124.695 103.352 125.191 103.065L124.186 101.335ZM122.243 103.353C121.761 104.236 121.545 105.263 121.545 106.392H123.545C123.545 105.515 123.712 104.836 123.998 104.311L122.243 103.353ZM121.545 106.392C121.545 107.505 121.763 108.525 122.237 109.42L124.004 108.484C123.71 107.929 123.545 107.242 123.545 106.392H121.545ZM122.243 109.431C122.71 110.287 123.359 110.968 124.186 111.449L125.191 109.719C124.695 109.432 124.299 109.025 123.998 108.473L122.243 109.431ZM124.186 111.449C125.013 111.929 125.936 112.16 126.929 112.16V110.16C126.257 110.16 125.686 110.007 125.191 109.719L124.186 111.449ZM139.71 115H138.71V116H139.71V115ZM139.71 91.256V90.256H138.71V91.256H139.71ZM144.702 91.256H145.702V90.256H144.702V91.256ZM144.702 115V116H145.702V115H144.702ZM140.71 115V91.256H138.71V115H140.71ZM139.71 92.256H144.702V90.256H139.71V92.256ZM143.702 91.256V115H145.702V91.256H143.702ZM144.702 114H139.71V116H144.702V114ZM152.631 114.104L152.152 114.982L152.158 114.985L152.631 114.104ZM149.271 110.968L148.415 111.484L148.42 111.493L148.425 111.5L149.271 110.968ZM149.271 101.816L148.421 101.29L148.419 101.293L149.271 101.816ZM152.631 98.68L153.1 99.5635L153.105 99.5609L152.631 98.68ZM162.391 98.68L161.918 99.561L161.928 99.5663L162.391 98.68ZM165.751 110.968L166.604 111.491L166.608 111.484L165.751 110.968ZM162.391 114.104L161.918 113.223L161.918 113.223L162.391 114.104ZM159.767 110.584L160.269 111.449L160.269 111.449L159.767 110.584ZM161.335 108.952L162.213 109.431L162.219 109.42L161.335 108.952ZM161.335 103.832L160.457 104.311L160.457 104.311L161.335 103.832ZM159.767 102.2L159.265 103.065L159.265 103.065L159.767 102.2ZM155.287 102.2L155.789 103.065L155.789 103.065L155.287 102.2ZM153.687 103.832L152.821 103.333L152.815 103.343L152.809 103.353L153.687 103.832ZM153.687 108.952L152.803 109.42L152.812 109.436L152.821 109.451L153.687 108.952ZM155.287 110.584L155.789 109.719L155.789 109.719L155.287 110.584ZM157.527 114.256C155.836 114.256 154.37 113.903 153.105 113.223L152.158 114.985C153.751 115.841 155.549 116.256 157.527 116.256V114.256ZM153.11 113.226C151.848 112.538 150.856 111.61 150.118 110.436L148.425 111.5C149.35 112.972 150.598 114.134 152.152 114.982L153.11 113.226ZM150.128 110.452C149.419 109.277 149.055 107.933 149.055 106.392H147.055C147.055 108.264 147.502 109.971 148.415 111.484L150.128 110.452ZM149.055 106.392C149.055 104.827 149.42 103.487 150.124 102.339L148.419 101.293C147.501 102.791 147.055 104.501 147.055 106.392H149.055ZM150.122 102.342C150.859 101.15 151.847 100.228 153.1 99.5635L152.163 97.7965C150.599 98.6256 149.347 99.7936 148.421 101.29L150.122 102.342ZM153.105 99.5609C154.37 98.8808 155.836 98.528 157.527 98.528V96.528C155.549 96.528 153.751 96.9432 152.158 97.7991L153.105 99.5609ZM157.527 98.528C159.195 98.528 160.651 98.8799 161.918 99.5609L162.865 97.7991C161.273 96.9441 159.486 96.528 157.527 96.528V98.528ZM161.928 99.5663C163.204 100.233 164.186 101.144 164.899 102.307L166.604 101.261C165.695 99.7782 164.437 98.6206 162.854 97.7936L161.928 99.5663ZM164.899 102.307C165.601 103.453 165.967 104.803 165.967 106.392H167.967C167.967 104.482 167.523 102.761 166.604 101.261L164.899 102.307ZM165.967 106.392C165.967 107.933 165.603 109.277 164.895 110.452L166.608 111.484C167.52 109.971 167.967 108.264 167.967 106.392H165.967ZM164.899 110.445C164.185 111.61 163.199 112.535 161.918 113.223L162.865 114.985C164.442 114.137 165.696 112.971 166.604 111.491L164.899 110.445ZM161.918 113.223C160.651 113.904 159.195 114.256 157.527 114.256V116.256C159.486 116.256 161.273 115.84 162.865 114.985L161.918 113.223ZM157.527 112.16C158.52 112.16 159.442 111.929 160.269 111.449L159.265 109.719C158.77 110.007 158.199 110.16 157.527 110.16V112.16ZM160.269 111.449C161.097 110.968 161.746 110.287 162.213 109.431L160.457 108.473C160.156 109.025 159.76 109.432 159.265 109.719L160.269 111.449ZM162.219 109.42C162.693 108.525 162.911 107.505 162.911 106.392H160.911C160.911 107.242 160.746 107.929 160.451 108.484L162.219 109.42ZM162.911 106.392C162.911 105.263 162.695 104.236 162.213 103.353L160.457 104.311C160.744 104.836 160.911 105.515 160.911 106.392H162.911ZM162.213 103.353C161.746 102.497 161.097 101.816 160.269 101.335L159.265 103.065C159.76 103.352 160.156 103.759 160.457 104.311L162.213 103.353ZM160.269 101.335C159.442 100.855 158.52 100.624 157.527 100.624V102.624C158.199 102.624 158.77 102.777 159.265 103.065L160.269 101.335ZM157.527 100.624C156.535 100.624 155.612 100.855 154.785 101.335L155.789 103.065C156.285 102.777 156.856 102.624 157.527 102.624V100.624ZM154.785 101.335C153.963 101.813 153.308 102.487 152.821 103.333L154.554 104.331C154.877 103.769 155.289 103.355 155.789 103.065L154.785 101.335ZM152.809 103.353C152.328 104.236 152.111 105.263 152.111 106.392H154.111C154.111 105.515 154.279 104.836 154.565 104.311L152.809 103.353ZM152.111 106.392C152.111 107.505 152.33 108.525 152.803 109.42L154.571 108.484C154.277 107.929 154.111 107.242 154.111 106.392H152.111ZM152.821 109.451C153.308 110.297 153.963 110.971 154.785 111.449L155.789 109.719C155.289 109.429 154.877 109.015 154.554 108.453L152.821 109.451ZM154.785 111.449C155.612 111.929 156.535 112.16 157.527 112.16V110.16C156.856 110.16 156.285 110.007 155.789 109.719L154.785 111.449ZM170.304 115H169.304V116H170.304V115ZM170.304 97.784V96.784H169.304V97.784H170.304ZM175.072 97.784H176.072V96.784H175.072V97.784ZM175.072 102.648L174.17 103.079L176.072 102.648H175.072ZM174.4 101.24L173.478 100.852L173.304 101.266L173.498 101.671L174.4 101.24ZM176.864 98.488L177.344 99.3653L177.35 99.3618L177.357 99.3583L176.864 98.488ZM180.992 97.528H181.992V96.528H180.992V97.528ZM180.992 102.136L180.892 103.131L181.992 103.241V102.136H180.992ZM180.416 102.104L180.292 103.096L180.354 103.104H180.416V102.104ZM176.544 103.256L177.222 103.991L177.223 103.99L176.544 103.256ZM175.296 115V116H176.296V115H175.296ZM171.304 115V97.784H169.304V115H171.304ZM170.304 98.784H175.072V96.784H170.304V98.784ZM174.072 97.784V102.648H176.072V97.784H174.072ZM175.974 102.217L175.302 100.809L173.498 101.671L174.17 103.079L175.974 102.217ZM175.322 101.628C175.748 100.615 176.417 99.8727 177.344 99.3653L176.384 97.6107C175.05 98.3406 174.076 99.433 173.478 100.852L175.322 101.628ZM177.357 99.3583C178.304 98.8219 179.501 98.528 180.992 98.528V96.528C179.24 96.528 177.685 96.8741 176.371 97.6177L177.357 99.3583ZM179.992 97.528V102.136H181.992V97.528H179.992ZM181.092 101.141C180.853 101.117 180.627 101.104 180.416 101.104V103.104C180.546 103.104 180.704 103.112 180.892 103.131L181.092 101.141ZM180.54 101.112C180.324 101.085 180.101 101.072 179.872 101.072V103.072C180.027 103.072 180.167 103.081 180.292 103.096L180.54 101.112ZM179.872 101.072C178.302 101.072 176.935 101.532 175.865 102.522L177.223 103.99C177.86 103.401 178.712 103.072 179.872 103.072V101.072ZM175.866 102.521C174.751 103.55 174.296 105.078 174.296 106.872H176.296C176.296 105.381 176.673 104.498 177.222 103.991L175.866 102.521ZM174.296 106.872V115H176.296V106.872H174.296ZM175.296 114H170.304V116H175.296V114ZM187.195 114.104L186.733 114.991L186.738 114.993L187.195 114.104ZM183.771 110.968L182.915 111.485L182.919 111.491L183.771 110.968ZM183.739 101.816L182.883 101.3L182.881 101.304L183.739 101.816ZM187.035 98.68L187.509 99.5605L187.52 99.5548L187.035 98.68ZM196.283 98.616L195.808 99.496L195.817 99.5005L195.825 99.5048L196.283 98.616ZM199.515 101.688L198.653 102.194L198.657 102.2L199.515 101.688ZM200.667 107.128L201.663 107.219L201.664 107.211L200.667 107.128ZM200.603 107.8V108.8H201.508L201.598 107.9L200.603 107.8ZM186.619 107.8H185.619V108.8H186.619V107.8ZM186.619 104.888V103.888H185.619V104.888H186.619ZM197.979 104.888L198.39 105.8L197.979 103.888V104.888ZM196.059 105.752H195.059V107.299L196.47 106.664L196.059 105.752ZM195.515 103.416L194.638 103.897L194.638 103.897L195.515 103.416ZM194.011 101.88L193.497 102.737L193.507 102.744L193.518 102.75L194.011 101.88ZM189.499 101.88L189.992 102.75L190.001 102.745L189.499 101.88ZM187.995 103.448L188.872 103.929L188.878 103.917L187.995 103.448ZM188.059 109.08L187.186 109.568L187.195 109.583L187.204 109.598L188.059 109.08ZM189.819 110.712L189.362 111.601L189.377 111.609L189.392 111.616L189.819 110.712ZM194.907 110.84L194.541 109.91L194.531 109.914L194.907 110.84ZM196.827 109.592L197.562 108.914L196.87 108.163L196.134 108.872L196.827 109.592ZM199.483 112.472L200.234 113.133L200.829 112.457L200.218 111.794L199.483 112.472ZM196.507 114.552L196.873 115.483L196.88 115.48L196.887 115.477L196.507 114.552ZM192.379 114.256C190.549 114.256 188.982 113.899 187.653 113.215L186.738 114.993C188.395 115.845 190.284 116.256 192.379 116.256V114.256ZM187.658 113.217C186.335 112.527 185.333 111.603 184.624 110.445L182.919 111.491C183.831 112.979 185.112 114.145 186.733 114.991L187.658 113.217ZM184.628 110.452C183.919 109.277 183.555 107.933 183.555 106.392H181.555C181.555 108.264 182.002 109.971 182.915 111.484L184.628 110.452ZM183.555 106.392C183.555 104.822 183.912 103.478 184.598 102.328L182.881 101.304C181.988 102.799 181.555 104.506 181.555 106.392H183.555ZM184.596 102.332C185.313 101.142 186.28 100.223 187.509 99.5605L186.561 97.7995C185.017 98.6308 183.786 99.8016 182.883 101.3L184.596 102.332ZM187.52 99.5548C188.743 98.8772 190.141 98.528 191.739 98.528V96.528C189.838 96.528 188.101 96.9468 186.551 97.8052L187.52 99.5548ZM191.739 98.528C193.276 98.528 194.625 98.8574 195.808 99.496L196.758 97.736C195.254 96.924 193.573 96.528 191.739 96.528V98.528ZM195.825 99.5048C197.02 100.121 197.958 101.011 198.653 102.194L200.378 101.182C199.494 99.677 198.278 98.5192 196.742 97.7272L195.825 99.5048ZM198.657 102.2C199.336 103.339 199.699 104.743 199.699 106.456H201.699C201.699 104.457 201.273 102.682 200.374 101.176L198.657 102.2ZM199.699 106.456C199.699 106.613 199.69 106.808 199.671 107.045L201.664 107.211C201.687 106.936 201.699 106.683 201.699 106.456H199.699ZM199.671 107.037C199.65 107.269 199.629 107.49 199.608 107.7L201.598 107.9C201.62 107.683 201.642 107.456 201.663 107.219L199.671 107.037ZM200.603 106.8H186.619V108.8H200.603V106.8ZM187.619 107.8V104.888H185.619V107.8H187.619ZM186.619 105.888H197.979V103.888H186.619V105.888ZM197.569 103.976L195.649 104.84L196.47 106.664L198.39 105.8L197.569 103.976ZM197.059 105.752C197.059 104.719 196.849 103.769 196.392 102.935L194.638 103.897C194.906 104.385 195.059 104.992 195.059 105.752H197.059ZM196.392 102.935C195.942 102.115 195.31 101.467 194.504 101.01L193.518 102.75C193.992 103.019 194.363 103.394 194.638 103.897L196.392 102.935ZM194.526 101.023C193.709 100.533 192.779 100.304 191.771 100.304V102.304C192.47 102.304 193.033 102.459 193.497 102.737L194.526 101.023ZM191.771 100.304C190.762 100.304 189.828 100.533 188.997 101.015L190.001 102.745C190.493 102.459 191.073 102.304 191.771 102.304V100.304ZM189.006 101.01C188.192 101.471 187.559 102.137 187.112 102.979L188.878 103.917C189.157 103.394 189.526 103.014 189.992 102.75L189.006 101.01ZM187.118 102.967C186.659 103.805 186.451 104.767 186.451 105.816H188.451C188.451 105.031 188.606 104.414 188.872 103.929L187.118 102.967ZM186.451 105.816V106.584H188.451V105.816H186.451ZM186.451 106.584C186.451 107.671 186.687 108.675 187.186 109.568L188.932 108.592C188.621 108.034 188.451 107.374 188.451 106.584H186.451ZM187.204 109.598C187.729 110.464 188.454 111.135 189.362 111.601L190.277 109.823C189.691 109.521 189.243 109.104 188.914 108.562L187.204 109.598ZM189.392 111.616C190.318 112.054 191.365 112.256 192.507 112.256V110.256C191.601 110.256 190.856 110.096 190.246 109.808L189.392 111.616ZM192.507 112.256C193.523 112.256 194.456 112.103 195.284 111.766L194.531 109.914C193.993 110.132 193.326 110.256 192.507 110.256V112.256ZM195.274 111.77C196.106 111.442 196.856 110.953 197.521 110.312L196.134 108.872C195.646 109.341 195.116 109.683 194.541 109.91L195.274 111.77ZM196.092 110.27L198.748 113.15L200.218 111.794L197.562 108.914L196.092 110.27ZM198.733 111.811C198.053 112.582 197.192 113.19 196.127 113.627L196.887 115.477C198.212 114.933 199.335 114.154 200.234 113.133L198.733 111.811ZM196.142 113.621C195.085 114.036 193.837 114.256 192.379 114.256V116.256C194.036 116.256 195.54 116.006 196.873 115.483L196.142 113.621ZM238.749 98.36L238.281 99.2433L238.291 99.249L238.302 99.2544L238.749 98.36ZM241.245 100.856L240.361 101.323L240.366 101.333L240.372 101.343L241.245 100.856ZM242.173 115V116H243.173V115H242.173ZM237.181 115H236.181V116H237.181V115ZM236.317 102.84L237.071 102.183L237.071 102.183L236.317 102.84ZM231.933 102.36L232.419 103.234L232.431 103.227L232.443 103.22L231.933 102.36ZM230.589 103.832L231.489 104.268L231.489 104.268L230.589 103.832ZM230.109 115V116H231.109V115H230.109ZM225.117 115H224.117V116H225.117V115ZM224.253 102.84L223.487 103.483L223.493 103.49L223.499 103.497L224.253 102.84ZM219.901 102.36L220.387 103.234L220.399 103.227L220.411 103.22L219.901 102.36ZM218.557 103.832L219.457 104.268L219.457 104.268L218.557 103.832ZM218.077 115V116H219.077V115H218.077ZM213.085 115H212.085V116H213.085V115ZM213.085 97.784V96.784H212.085V97.784H213.085ZM217.853 97.784H218.853V96.784H217.853V97.784ZM217.853 102.488L217.015 103.034L218.853 105.856V102.488H217.853ZM216.957 101.112L216.066 100.658L215.804 101.173L216.119 101.658L216.957 101.112ZM219.485 98.456L219.967 99.3326L219.972 99.3294L219.485 98.456ZM227.389 98.744L226.821 99.5667L226.829 99.5726L226.838 99.5783L227.389 98.744ZM229.757 102.392L229.494 103.357L231.113 103.798L230.731 102.164L229.757 102.392ZM227.997 101.912L227.078 101.518L226.625 102.574L227.734 102.877L227.997 101.912ZM230.749 98.712L230.224 97.8608L230.218 97.8648L230.749 98.712ZM235.133 98.528C236.36 98.528 237.4 98.7763 238.281 99.2433L239.218 97.4766C238.007 96.8344 236.637 96.528 235.133 96.528V98.528ZM238.302 99.2544C239.168 99.6875 239.854 100.363 240.361 101.323L242.129 100.389C241.442 99.0878 240.464 98.0991 239.196 97.4656L238.302 99.2544ZM240.372 101.343C240.882 102.258 241.173 103.504 241.173 105.144H243.173C243.173 103.285 242.846 101.673 242.119 100.369L240.372 101.343ZM241.173 105.144V115H243.173V105.144H241.173ZM242.173 114H237.181V116H242.173V114ZM238.181 115V105.912H236.181V115H238.181ZM238.181 105.912C238.181 104.417 237.876 103.107 237.071 102.183L235.563 103.497C235.911 103.896 236.181 104.634 236.181 105.912H238.181ZM237.071 102.183C236.269 101.262 235.159 100.848 233.885 100.848V102.848C234.702 102.848 235.214 103.096 235.563 103.497L237.071 102.183ZM233.885 100.848C232.996 100.848 232.167 101.059 231.423 101.5L232.443 103.22C232.852 102.978 233.324 102.848 233.885 102.848V100.848ZM231.448 101.486C230.671 101.917 230.088 102.572 229.689 103.396L231.489 104.268C231.73 103.769 232.043 103.443 232.419 103.234L231.448 101.486ZM229.689 103.396C229.283 104.236 229.109 105.241 229.109 106.36H231.109C231.109 105.431 231.256 104.751 231.489 104.268L229.689 103.396ZM229.109 106.36V115H231.109V106.36H229.109ZM230.109 114H225.117V116H230.109V114ZM226.117 115V105.912H224.117V115H226.117ZM226.117 105.912C226.117 104.417 225.812 103.107 225.007 102.183L223.499 103.497C223.847 103.896 224.117 104.634 224.117 105.912H226.117ZM225.019 102.197C224.235 101.262 223.126 100.848 221.853 100.848V102.848C222.671 102.848 223.162 103.096 223.487 103.483L225.019 102.197ZM221.853 100.848C220.964 100.848 220.135 101.059 219.391 101.5L220.411 103.22C220.82 102.978 221.292 102.848 221.853 102.848V100.848ZM219.416 101.486C218.639 101.917 218.056 102.572 217.657 103.396L219.457 104.268C219.698 103.769 220.011 103.443 220.387 103.234L219.416 101.486ZM217.657 103.396C217.251 104.236 217.077 105.241 217.077 106.36H219.077C219.077 105.431 219.224 104.751 219.457 104.268L217.657 103.396ZM217.077 106.36V115H219.077V106.36H217.077ZM218.077 114H213.085V116H218.077V114ZM214.085 115V97.784H212.085V115H214.085ZM213.085 98.784H217.853V96.784H213.085V98.784ZM216.853 97.784V102.488H218.853V97.784H216.853ZM218.691 101.942L217.795 100.566L216.119 101.658L217.015 103.034L218.691 101.942ZM217.848 101.566C218.36 100.56 219.065 99.8273 219.967 99.3326L219.004 97.5794C217.729 98.2794 216.749 99.3175 216.066 100.658L217.848 101.566ZM219.972 99.3294C220.917 98.8025 222.005 98.528 223.261 98.528V96.528C221.702 96.528 220.272 96.8722 218.998 97.5826L219.972 99.3294ZM223.261 98.528C224.66 98.528 225.832 98.8837 226.821 99.5667L227.958 97.9213C226.6 96.9829 225.02 96.528 223.261 96.528V98.528ZM226.838 99.5783C227.782 100.202 228.447 101.178 228.784 102.62L230.731 102.164C230.3 100.32 229.386 98.8645 227.941 97.9097L226.838 99.5783ZM230.02 101.427L228.26 100.947L227.734 102.877L229.494 103.357L230.02 101.427ZM228.916 102.306C229.411 101.152 230.191 100.242 231.281 99.5592L230.218 97.8648C228.79 98.7604 227.736 99.9839 227.078 101.518L228.916 102.306ZM231.274 99.5632C232.382 98.88 233.658 98.528 235.133 98.528V96.528C233.323 96.528 231.677 96.9653 230.224 97.8608L231.274 99.5632ZM245.855 121.048L246.157 120.095L245.855 121.048ZM243.711 119.896L242.822 119.439L242.467 120.13L243.049 120.645L243.711 119.896ZM245.535 116.344L246.2 115.597L245.235 114.739L244.646 115.887L245.535 116.344ZM246.847 117.144L246.483 118.075L246.489 118.078L246.496 118.08L246.847 117.144ZM250.015 116.92L249.415 116.12L249.393 116.137L249.371 116.155L250.015 116.92ZM251.167 115.288L252.081 115.694L252.085 115.686L252.088 115.679L251.167 115.288ZM252.063 113.176L251.246 112.599L251.185 112.687L251.143 112.785L252.063 113.176ZM252.447 112.632L253.264 113.209L253.328 113.118L253.371 113.016L252.447 112.632ZM258.623 97.784V96.784H257.956L257.7 97.3999L258.623 97.784ZM263.423 97.784L264.343 98.1756L264.936 96.784H263.423V97.784ZM255.647 116.056L254.727 115.664L254.723 115.674L254.719 115.685L255.647 116.056ZM253.727 119.32L252.991 118.643L252.986 118.649L252.981 118.654L253.727 119.32ZM251.359 120.984L251.016 120.045L251.008 120.048L251.359 120.984ZM251.455 115.672L250.536 116.067L251.125 117.436L252.169 116.373L251.455 115.672ZM243.775 97.784V96.784H242.258L242.856 98.1785L243.775 97.784ZM248.927 97.784L249.851 97.402L249.596 96.784H248.927V97.784ZM254.879 112.184L255.593 112.885L256.056 112.413L255.803 111.802L254.879 112.184ZM248.511 120.464C247.72 120.464 246.937 120.342 246.157 120.095L245.553 122.001C246.523 122.309 247.51 122.464 248.511 122.464V120.464ZM246.157 120.095C245.385 119.85 244.802 119.526 244.374 119.147L243.049 120.645C243.73 121.247 244.576 121.692 245.553 122.001L246.157 120.095ZM244.601 120.353L246.425 116.801L244.646 115.887L242.822 119.439L244.601 120.353ZM244.871 117.091C245.345 117.513 245.885 117.841 246.483 118.075L247.212 116.213C246.828 116.063 246.493 115.857 246.2 115.597L244.871 117.091ZM246.496 118.08C247.108 118.31 247.728 118.432 248.351 118.432V116.432C247.993 116.432 247.611 116.362 247.198 116.208L246.496 118.08ZM248.351 118.432C249.213 118.432 250.022 118.222 250.659 117.685L249.371 116.155C249.198 116.301 248.898 116.432 248.351 116.432V118.432ZM250.615 117.72C251.235 117.255 251.707 116.537 252.081 115.694L250.253 114.882C249.945 115.575 249.649 115.945 249.415 116.12L250.615 117.72ZM252.088 115.679L252.984 113.567L251.143 112.785L250.247 114.897L252.088 115.679ZM252.88 113.753L253.264 113.209L251.63 112.055L251.246 112.599L252.88 113.753ZM253.371 113.016L259.547 98.168L257.7 97.3999L251.524 112.248L253.371 113.016ZM258.623 98.784H263.423V96.784H258.623V98.784ZM262.503 97.3924L254.727 115.664L256.567 116.448L264.343 98.1756L262.503 97.3924ZM254.719 115.685C254.193 117 253.609 117.971 252.991 118.643L254.464 119.997C255.296 119.09 255.992 117.886 256.576 116.427L254.719 115.685ZM252.981 118.654C252.372 119.338 251.716 119.789 251.016 120.045L251.703 121.923C252.752 121.539 253.675 120.881 254.474 119.986L252.981 118.654ZM251.008 120.048C250.282 120.32 249.454 120.464 248.511 120.464V122.464C249.659 122.464 250.73 122.288 251.71 121.92L251.008 120.048ZM252.374 115.277L244.694 97.3895L242.856 98.1785L250.536 116.067L252.374 115.277ZM243.775 98.784H248.927V96.784H243.775V98.784ZM248.003 98.166L253.955 112.566L255.803 111.802L249.851 97.402L248.003 98.166ZM254.166 111.483L250.742 114.971L252.169 116.373L255.593 112.885L254.166 111.483ZM276.059 114.744L275.798 115.709L275.807 115.712L275.816 115.714L276.059 114.744ZM272.859 113.4L271.952 112.979L271.593 113.752L272.299 114.229L272.859 113.4ZM274.523 109.816L275.051 108.967L274.091 108.37L273.616 109.395L274.523 109.816ZM277.307 111.032L277.019 111.99L277.031 111.993L277.042 111.996L277.307 111.032ZM282.939 111.064L282.447 110.193L282.438 110.198L282.43 110.203L282.939 111.064ZM283.099 109.016L282.592 109.878L282.621 109.895L282.652 109.91L283.099 109.016ZM281.627 108.536L281.457 109.521L281.457 109.521L281.627 108.536ZM279.579 108.216L279.433 109.205L279.437 109.206L279.579 108.216ZM277.371 107.8L277.122 108.768L277.135 108.772L277.148 108.775L277.371 107.8ZM275.323 106.968L275.828 106.105L275.828 106.105L275.323 106.968ZM273.819 105.496L272.956 106.002L272.962 106.013L272.969 106.023L273.819 105.496ZM274.203 100.216L273.41 99.6063L273.405 99.6128L273.4 99.6193L274.203 100.216ZM276.955 98.264L277.32 99.1948L277.328 99.1919L277.335 99.189L276.955 98.264ZM284.827 97.912L285.033 96.9334L285.033 96.9334L284.827 97.912ZM287.867 99.032L288.772 99.4562L289.154 98.642L288.385 98.1765L287.867 99.032ZM286.203 102.584L285.695 103.445L286.642 104.004L287.108 103.008L286.203 102.584ZM283.675 101.592L283.45 102.566L283.464 102.57L283.479 102.573L283.675 101.592ZM278.811 101.752L278.307 100.888L278.307 100.888L278.811 101.752ZM278.587 103.864L278.08 104.726L278.09 104.732L278.101 104.738L278.587 103.864ZM282.107 104.728L281.961 105.717L281.977 105.72L281.993 105.722L282.107 104.728ZM284.347 105.144L284.596 104.176L284.596 104.176L284.347 105.144ZM286.363 105.976L285.844 106.831L285.862 106.842L285.88 106.852L286.363 105.976ZM287.867 107.416L287.017 107.943L287.021 107.95L287.026 107.957L287.867 107.416ZM287.483 112.632L288.268 113.252L288.275 113.242L287.483 112.632ZM284.699 114.552L284.339 113.619L284.333 113.621L284.699 114.552ZM280.315 114.256C278.921 114.256 277.584 114.094 276.301 113.774L275.816 115.714C277.264 116.076 278.765 116.256 280.315 116.256V114.256ZM276.319 113.779C275.037 113.433 274.085 113.021 273.419 112.571L272.299 114.229C273.211 114.845 274.392 115.33 275.798 115.709L276.319 113.779ZM273.766 113.821L275.43 110.237L273.616 109.395L271.952 112.979L273.766 113.821ZM273.995 110.665C274.872 111.211 275.884 111.649 277.019 111.99L277.594 110.074C276.596 109.775 275.752 109.403 275.051 108.967L273.995 110.665ZM277.042 111.996C278.209 112.317 279.365 112.48 280.507 112.48V110.48C279.558 110.48 278.58 110.345 277.571 110.068L277.042 111.996ZM280.507 112.48C281.679 112.48 282.729 112.35 283.447 111.925L282.43 110.203C282.21 110.333 281.638 110.48 280.507 110.48V112.48ZM283.431 111.935C284.179 111.512 284.675 110.823 284.675 109.912H282.675C282.675 109.982 282.66 110.011 282.648 110.03C282.632 110.055 282.583 110.116 282.447 110.193L283.431 111.935ZM284.675 109.912C284.675 109.545 284.586 109.176 284.372 108.843C284.16 108.514 283.865 108.281 283.546 108.122L282.652 109.91C282.685 109.927 282.699 109.939 282.702 109.941C282.704 109.942 282.703 109.942 282.7 109.939C282.697 109.936 282.694 109.931 282.69 109.925C282.686 109.919 282.682 109.912 282.679 109.906C282.677 109.899 282.675 109.894 282.674 109.891C282.672 109.884 282.675 109.89 282.675 109.912H284.675ZM283.606 108.154C283.101 107.857 282.481 107.669 281.797 107.551L281.457 109.521C282.009 109.617 282.371 109.748 282.592 109.878L283.606 108.154ZM281.797 107.551C281.167 107.442 280.475 107.334 279.72 107.226L279.437 109.206C280.176 109.312 280.849 109.417 281.457 109.521L281.797 107.551ZM279.724 107.227C279.026 107.124 278.316 106.99 277.594 106.825L277.148 108.775C277.919 108.951 278.681 109.095 279.433 109.205L279.724 107.227ZM277.62 106.832C276.956 106.661 276.361 106.418 275.828 106.105L274.817 107.831C275.522 108.244 276.292 108.555 277.122 108.768L277.62 106.832ZM275.828 106.105C275.352 105.826 274.968 105.451 274.668 104.969L272.969 106.023C273.437 106.778 274.056 107.385 274.817 107.831L275.828 106.105ZM274.681 104.99C274.436 104.571 274.275 103.962 274.275 103.096H272.275C272.275 104.192 272.476 105.183 272.956 106.002L274.681 104.99ZM274.275 103.096C274.275 102.212 274.521 101.463 275.005 100.813L273.4 99.6193C272.647 100.633 272.275 101.804 272.275 103.096H274.275ZM274.995 100.826C275.503 100.166 276.257 99.6125 277.32 99.1948L276.589 97.3332C275.263 97.8541 274.183 98.6016 273.41 99.6063L274.995 100.826ZM277.335 99.189C278.38 98.7599 279.673 98.528 281.243 98.528V96.528C279.484 96.528 277.919 96.7868 276.575 97.339L277.335 99.189ZM281.243 98.528C282.343 98.528 283.469 98.648 284.621 98.8905L285.033 96.9334C283.753 96.664 282.489 96.528 281.243 96.528V98.528ZM284.621 98.8905C285.759 99.1302 286.659 99.4701 287.349 99.8875L288.385 98.1765C287.453 97.6126 286.327 97.2058 285.033 96.9334L284.621 98.8905ZM286.961 98.6078L285.297 102.16L287.108 103.008L288.772 99.4562L286.961 98.6078ZM286.711 101.723C285.793 101.181 284.845 100.806 283.871 100.611L283.479 102.573C284.211 102.719 284.949 103.005 285.695 103.445L286.711 101.723ZM283.9 100.618C283 100.41 282.114 100.304 281.243 100.304V102.304C281.951 102.304 282.686 102.39 283.45 102.566L283.9 100.618ZM281.243 100.304C280.086 100.304 279.055 100.452 278.307 100.888L279.315 102.616C279.591 102.455 280.18 102.304 281.243 102.304V100.304ZM278.307 100.888C277.581 101.312 277.043 101.983 277.043 102.904H279.043C279.043 102.863 279.05 102.843 279.067 102.819C279.09 102.784 279.154 102.709 279.315 102.616L278.307 100.888ZM277.043 102.904C277.043 103.679 277.406 104.33 278.08 104.726L279.094 103.002C279.066 102.986 279.053 102.974 279.049 102.97C279.045 102.966 279.046 102.967 279.049 102.971C279.051 102.975 279.05 102.975 279.049 102.968C279.047 102.96 279.043 102.94 279.043 102.904H277.043ZM278.101 104.738C278.603 105.017 279.21 105.215 279.888 105.355L280.293 103.397C279.734 103.281 279.338 103.138 279.072 102.99L278.101 104.738ZM279.888 105.355C280.528 105.488 281.22 105.608 281.961 105.717L282.252 103.739C281.543 103.634 280.89 103.52 280.293 103.397L279.888 105.355ZM281.993 105.722C282.693 105.802 283.394 105.932 284.098 106.112L284.596 104.176C283.806 103.972 283.014 103.825 282.22 103.734L281.993 105.722ZM284.098 106.112C284.759 106.283 285.339 106.524 285.844 106.831L286.882 105.121C286.192 104.703 285.428 104.389 284.596 104.176L284.098 106.112ZM285.88 106.852C286.344 107.108 286.721 107.466 287.017 107.943L288.716 106.889C288.245 106.129 287.619 105.527 286.846 105.1L285.88 106.852ZM287.026 107.957C287.273 108.342 287.443 108.924 287.443 109.784H289.443C289.443 108.682 289.228 107.684 288.708 106.875L287.026 107.957ZM287.443 109.784C287.443 110.634 287.193 111.368 286.69 112.022L288.275 113.242C289.052 112.232 289.443 111.067 289.443 109.784H287.443ZM286.698 112.012C286.194 112.65 285.431 113.198 284.339 113.619L285.059 115.485C286.399 114.968 287.491 114.235 288.268 113.252L286.698 112.012ZM284.333 113.621C283.288 114.032 281.958 114.256 280.315 114.256V116.256C282.127 116.256 283.721 116.011 285.064 115.483L284.333 113.621ZM295.651 111.48L294.651 111.459L294.599 113.916L296.352 112.193L295.651 111.48ZM295.779 105.4L295.091 104.674L294.788 104.962L294.779 105.379L295.779 105.4ZM303.811 97.784V96.784H303.412L303.123 97.0583L303.811 97.784ZM309.763 97.784L310.476 98.4853L312.149 96.784H309.763V97.784ZM302.051 105.624L302.682 106.399L302.725 106.364L302.764 106.325L302.051 105.624ZM299.459 107.736L298.827 106.961L298.791 106.99L298.758 107.023L299.459 107.736ZM291.523 115H290.523V116H291.523V115ZM291.523 91.256V90.256H290.523V91.256H291.523ZM296.515 91.256H297.515V90.256H296.515V91.256ZM296.515 115V116H297.515V115H296.515ZM304.355 115L303.576 115.627L303.876 116H304.355V115ZM298.531 107.768L297.754 107.139L297.245 107.766L297.752 108.395L298.531 107.768ZM301.667 103.896L302.453 103.278L301.678 102.293L300.89 103.267L301.667 103.896ZM310.403 115V116H312.462L311.189 114.382L310.403 115ZM296.651 111.501L296.779 105.421L294.779 105.379L294.651 111.459L296.651 111.501ZM296.467 106.126L304.499 98.5096L303.123 97.0583L295.091 104.674L296.467 106.126ZM303.811 98.784H309.763V96.784H303.811V98.784ZM309.05 97.0827L301.338 104.923L302.764 106.325L310.476 98.4853L309.05 97.0827ZM301.419 104.849L298.827 106.961L300.09 108.511L302.682 106.399L301.419 104.849ZM298.758 107.023L294.95 110.767L296.352 112.193L300.16 108.449L298.758 107.023ZM292.523 115V91.256H290.523V115H292.523ZM291.523 92.256H296.515V90.256H291.523V92.256ZM295.515 91.256V115H297.515V91.256H295.515ZM296.515 114H291.523V116H296.515V114ZM305.134 114.373L299.31 107.141L297.752 108.395L303.576 115.627L305.134 114.373ZM299.308 108.397L302.444 104.525L300.89 103.267L297.754 107.139L299.308 108.397ZM300.881 104.514L309.617 115.618L311.189 114.382L302.453 103.278L300.881 104.514ZM310.403 114H304.355V116H310.403V114ZM312.648 115H311.648V116H312.648V115ZM312.648 97.784V96.784H311.648V97.784H312.648ZM317.64 97.784H318.64V96.784H317.64V97.784ZM317.64 115V116H318.64V115H317.64ZM312.904 94.584L312.224 95.3178L312.224 95.3178L312.904 94.584ZM312.904 90.616L313.583 91.3498L313.583 91.3498L312.904 90.616ZM317.384 90.584L316.719 91.3314L316.727 91.3384L316.735 91.3452L317.384 90.584ZM317.384 94.584L318.077 95.3048L318.077 95.3043L317.384 94.584ZM313.648 115V97.784H311.648V115H313.648ZM312.648 98.784H317.64V96.784H312.648V98.784ZM316.64 97.784V115H318.64V97.784H316.64ZM317.64 114H312.648V116H317.64V114ZM315.144 94.384C314.433 94.384 313.944 94.1839 313.583 93.8502L312.224 95.3178C313.016 96.0507 314.02 96.384 315.144 96.384V94.384ZM313.583 93.8502C313.213 93.5074 313.04 93.1125 313.04 92.6H311.04C311.04 93.6661 311.443 94.594 312.224 95.3178L313.583 93.8502ZM313.04 92.6C313.04 92.0875 313.213 91.6926 313.583 91.3498L312.224 89.8822C311.443 90.606 311.04 91.5339 311.04 92.6H313.04ZM313.583 91.3498C313.944 91.0161 314.433 90.816 315.144 90.816V88.816C314.02 88.816 313.016 89.1493 312.224 89.8822L313.583 91.3498ZM315.144 90.816C315.865 90.816 316.36 91.0121 316.719 91.3314L318.048 89.8366C317.255 89.1319 316.257 88.816 315.144 88.816V90.816ZM316.735 91.3452C317.077 91.6367 317.248 91.9932 317.248 92.504H319.248C319.248 91.4362 318.842 90.5126 318.032 89.8228L316.735 91.3452ZM317.248 92.504C317.248 93.0766 317.062 93.5059 316.69 93.8637L318.077 95.3043C318.858 94.5528 319.248 93.5954 319.248 92.504H317.248ZM316.691 93.8632C316.362 94.1796 315.884 94.384 315.144 94.384V96.384C316.281 96.384 317.297 96.055 318.077 95.3048L316.691 93.8632ZM322.273 115H321.273V116H322.273V115ZM322.273 91.256V90.256H321.273V91.256H322.273ZM327.265 91.256H328.265V90.256H327.265V91.256ZM327.265 115V116H328.265V115H327.265ZM323.273 115V91.256H321.273V115H323.273ZM322.273 92.256H327.265V90.256H322.273V92.256ZM326.265 91.256V115H328.265V91.256H326.265ZM327.265 114H322.273V116H327.265V114ZM331.898 115H330.898V116H331.898V115ZM331.898 91.256V90.256H330.898V91.256H331.898ZM336.89 91.256H337.89V90.256H336.89V91.256ZM336.89 115V116H337.89V115H336.89ZM332.898 115V91.256H330.898V115H332.898ZM331.898 92.256H336.89V90.256H331.898V92.256ZM335.89 91.256V115H337.89V91.256H335.89ZM336.89 114H331.898V116H336.89V114ZM343.059 114.744L342.798 115.709L342.807 115.712L342.816 115.714L343.059 114.744ZM339.859 113.4L338.952 112.979L338.593 113.752L339.299 114.229L339.859 113.4ZM341.523 109.816L342.051 108.967L341.091 108.37L340.616 109.395L341.523 109.816ZM344.307 111.032L344.019 111.99L344.031 111.993L344.042 111.996L344.307 111.032ZM349.939 111.064L349.447 110.193L349.438 110.198L349.43 110.203L349.939 111.064ZM350.099 109.016L349.592 109.878L349.621 109.895L349.652 109.91L350.099 109.016ZM348.627 108.536L348.457 109.521L348.457 109.521L348.627 108.536ZM346.579 108.216L346.433 109.205L346.437 109.206L346.579 108.216ZM344.371 107.8L344.122 108.768L344.135 108.772L344.148 108.775L344.371 107.8ZM342.323 106.968L342.828 106.105L342.828 106.105L342.323 106.968ZM340.819 105.496L339.956 106.002L339.962 106.013L339.969 106.023L340.819 105.496ZM341.203 100.216L340.41 99.6063L340.405 99.6128L340.4 99.6193L341.203 100.216ZM343.955 98.264L344.32 99.1948L344.328 99.1919L344.335 99.189L343.955 98.264ZM351.827 97.912L352.033 96.9334L352.033 96.9334L351.827 97.912ZM354.867 99.032L355.772 99.4562L356.154 98.642L355.385 98.1765L354.867 99.032ZM353.203 102.584L352.695 103.445L353.642 104.004L354.108 103.008L353.203 102.584ZM350.675 101.592L350.45 102.566L350.464 102.57L350.479 102.573L350.675 101.592ZM345.811 101.752L345.307 100.888L345.307 100.888L345.811 101.752ZM345.587 103.864L345.08 104.726L345.09 104.732L345.101 104.738L345.587 103.864ZM349.107 104.728L348.961 105.717L348.977 105.72L348.993 105.722L349.107 104.728ZM351.347 105.144L351.596 104.176L351.596 104.176L351.347 105.144ZM353.363 105.976L352.844 106.831L352.862 106.842L352.88 106.852L353.363 105.976ZM354.867 107.416L354.017 107.943L354.021 107.95L354.026 107.957L354.867 107.416ZM354.483 112.632L355.268 113.252L355.275 113.242L354.483 112.632ZM351.699 114.552L351.339 113.619L351.333 113.621L351.699 114.552ZM347.315 114.256C345.921 114.256 344.584 114.094 343.301 113.774L342.816 115.714C344.264 116.076 345.765 116.256 347.315 116.256V114.256ZM343.319 113.779C342.037 113.433 341.085 113.021 340.419 112.571L339.299 114.229C340.211 114.845 341.392 115.33 342.798 115.709L343.319 113.779ZM340.766 113.821L342.43 110.237L340.616 109.395L338.952 112.979L340.766 113.821ZM340.995 110.665C341.872 111.211 342.884 111.649 344.019 111.99L344.594 110.074C343.596 109.775 342.752 109.403 342.051 108.967L340.995 110.665ZM344.042 111.996C345.209 112.317 346.365 112.48 347.507 112.48V110.48C346.558 110.48 345.58 110.345 344.571 110.068L344.042 111.996ZM347.507 112.48C348.679 112.48 349.729 112.35 350.447 111.925L349.43 110.203C349.21 110.333 348.638 110.48 347.507 110.48V112.48ZM350.431 111.935C351.179 111.512 351.675 110.823 351.675 109.912H349.675C349.675 109.982 349.66 110.011 349.648 110.03C349.632 110.055 349.583 110.116 349.447 110.193L350.431 111.935ZM351.675 109.912C351.675 109.545 351.586 109.176 351.372 108.843C351.16 108.514 350.865 108.281 350.546 108.122L349.652 109.91C349.685 109.927 349.699 109.939 349.702 109.941C349.704 109.942 349.703 109.942 349.7 109.939C349.697 109.936 349.694 109.931 349.69 109.925C349.686 109.919 349.682 109.912 349.679 109.906C349.677 109.899 349.675 109.894 349.674 109.891C349.672 109.884 349.675 109.89 349.675 109.912H351.675ZM350.606 108.154C350.101 107.857 349.481 107.669 348.797 107.551L348.457 109.521C349.009 109.617 349.371 109.748 349.592 109.878L350.606 108.154ZM348.797 107.551C348.167 107.442 347.475 107.334 346.72 107.226L346.437 109.206C347.176 109.312 347.849 109.417 348.457 109.521L348.797 107.551ZM346.724 107.227C346.026 107.124 345.316 106.99 344.594 106.825L344.148 108.775C344.919 108.951 345.681 109.095 346.433 109.205L346.724 107.227ZM344.62 106.832C343.956 106.661 343.361 106.418 342.828 106.105L341.817 107.831C342.522 108.244 343.292 108.555 344.122 108.768L344.62 106.832ZM342.828 106.105C342.352 105.826 341.968 105.451 341.668 104.969L339.969 106.023C340.437 106.778 341.056 107.385 341.817 107.831L342.828 106.105ZM341.681 104.99C341.436 104.571 341.275 103.962 341.275 103.096H339.275C339.275 104.192 339.476 105.183 339.956 106.002L341.681 104.99ZM341.275 103.096C341.275 102.212 341.521 101.463 342.005 100.813L340.4 99.6193C339.647 100.633 339.275 101.804 339.275 103.096H341.275ZM341.995 100.826C342.503 100.166 343.257 99.6125 344.32 99.1948L343.589 97.3332C342.263 97.8541 341.183 98.6016 340.41 99.6063L341.995 100.826ZM344.335 99.189C345.38 98.7599 346.673 98.528 348.243 98.528V96.528C346.484 96.528 344.919 96.7868 343.575 97.339L344.335 99.189ZM348.243 98.528C349.343 98.528 350.469 98.648 351.621 98.8905L352.033 96.9334C350.753 96.664 349.489 96.528 348.243 96.528V98.528ZM351.621 98.8905C352.759 99.1302 353.659 99.4701 354.349 99.8875L355.385 98.1765C354.453 97.6126 353.327 97.2058 352.033 96.9334L351.621 98.8905ZM353.961 98.6078L352.297 102.16L354.108 103.008L355.772 99.4562L353.961 98.6078ZM353.711 101.723C352.793 101.181 351.845 100.806 350.871 100.611L350.479 102.573C351.211 102.719 351.949 103.005 352.695 103.445L353.711 101.723ZM350.9 100.618C350 100.41 349.114 100.304 348.243 100.304V102.304C348.951 102.304 349.686 102.39 350.45 102.566L350.9 100.618ZM348.243 100.304C347.086 100.304 346.055 100.452 345.307 100.888L346.315 102.616C346.591 102.455 347.18 102.304 348.243 102.304V100.304ZM345.307 100.888C344.581 101.312 344.043 101.983 344.043 102.904H346.043C346.043 102.863 346.05 102.843 346.067 102.819C346.09 102.784 346.154 102.709 346.315 102.616L345.307 100.888ZM344.043 102.904C344.043 103.679 344.406 104.33 345.08 104.726L346.094 103.002C346.066 102.986 346.053 102.974 346.049 102.97C346.045 102.966 346.046 102.967 346.049 102.971C346.051 102.975 346.05 102.975 346.049 102.968C346.047 102.96 346.043 102.94 346.043 102.904H344.043ZM345.101 104.738C345.603 105.017 346.21 105.215 346.888 105.355L347.293 103.397C346.734 103.281 346.338 103.138 346.072 102.99L345.101 104.738ZM346.888 105.355C347.528 105.488 348.22 105.608 348.961 105.717L349.252 103.739C348.543 103.634 347.89 103.52 347.293 103.397L346.888 105.355ZM348.993 105.722C349.693 105.802 350.394 105.932 351.098 106.112L351.596 104.176C350.806 103.972 350.014 103.825 349.22 103.734L348.993 105.722ZM351.098 106.112C351.759 106.283 352.339 106.524 352.844 106.831L353.882 105.121C353.192 104.703 352.428 104.389 351.596 104.176L351.098 106.112ZM352.88 106.852C353.344 107.108 353.721 107.466 354.017 107.943L355.716 106.889C355.245 106.129 354.619 105.527 353.846 105.1L352.88 106.852ZM354.026 107.957C354.273 108.342 354.443 108.924 354.443 109.784H356.443C356.443 108.682 356.228 107.684 355.708 106.875L354.026 107.957ZM354.443 109.784C354.443 110.634 354.193 111.368 353.69 112.022L355.275 113.242C356.052 112.232 356.443 111.067 356.443 109.784H354.443ZM353.698 112.012C353.194 112.65 352.431 113.198 351.339 113.619L352.059 115.485C353.399 114.968 354.491 114.235 355.268 113.252L353.698 112.012ZM351.333 113.621C350.288 114.032 348.958 114.256 347.315 114.256V116.256C349.127 116.256 350.721 116.011 352.064 115.483L351.333 113.621ZM370.881 114.104L370.402 114.982L370.408 114.985L370.881 114.104ZM367.521 110.968L366.665 111.484L366.67 111.493L366.675 111.5L367.521 110.968ZM367.521 101.816L366.671 101.29L366.669 101.293L367.521 101.816ZM370.881 98.68L371.35 99.5635L371.355 99.5609L370.881 98.68ZM380.641 98.68L380.168 99.561L380.178 99.5663L380.641 98.68ZM384.001 110.968L384.854 111.491L384.858 111.484L384.001 110.968ZM380.641 114.104L380.168 113.223L380.168 113.223L380.641 114.104ZM378.017 110.584L378.519 111.449L378.519 111.449L378.017 110.584ZM379.585 108.952L380.463 109.431L380.469 109.42L379.585 108.952ZM379.585 103.832L378.707 104.311L378.707 104.311L379.585 103.832ZM378.017 102.2L377.515 103.065L377.515 103.065L378.017 102.2ZM373.537 102.2L374.039 103.065L374.039 103.065L373.537 102.2ZM371.937 103.832L371.071 103.333L371.065 103.343L371.059 103.353L371.937 103.832ZM371.937 108.952L371.053 109.42L371.062 109.436L371.071 109.451L371.937 108.952ZM373.537 110.584L374.039 109.719L374.039 109.719L373.537 110.584ZM375.777 114.256C374.086 114.256 372.62 113.903 371.355 113.223L370.408 114.985C372.001 115.841 373.799 116.256 375.777 116.256V114.256ZM371.36 113.226C370.098 112.538 369.106 111.61 368.368 110.436L366.675 111.5C367.6 112.972 368.848 114.134 370.402 114.982L371.36 113.226ZM368.378 110.452C367.669 109.277 367.305 107.933 367.305 106.392H365.305C365.305 108.264 365.752 109.971 366.665 111.484L368.378 110.452ZM367.305 106.392C367.305 104.827 367.67 103.487 368.374 102.339L366.669 101.293C365.751 102.791 365.305 104.501 365.305 106.392H367.305ZM368.372 102.342C369.109 101.15 370.097 100.228 371.35 99.5635L370.413 97.7965C368.849 98.6256 367.597 99.7936 366.671 101.29L368.372 102.342ZM371.355 99.5609C372.62 98.8808 374.086 98.528 375.777 98.528V96.528C373.799 96.528 372.001 96.9432 370.408 97.7991L371.355 99.5609ZM375.777 98.528C377.445 98.528 378.901 98.8799 380.168 99.5609L381.115 97.7991C379.523 96.9441 377.736 96.528 375.777 96.528V98.528ZM380.178 99.5663C381.454 100.233 382.436 101.144 383.149 102.307L384.854 101.261C383.945 99.7782 382.687 98.6206 381.104 97.7936L380.178 99.5663ZM383.149 102.307C383.851 103.453 384.217 104.803 384.217 106.392H386.217C386.217 104.482 385.773 102.761 384.854 101.261L383.149 102.307ZM384.217 106.392C384.217 107.933 383.853 109.277 383.145 110.452L384.858 111.484C385.77 109.971 386.217 108.264 386.217 106.392H384.217ZM383.149 110.445C382.435 111.61 381.449 112.535 380.168 113.223L381.115 114.985C382.692 114.137 383.946 112.971 384.854 111.491L383.149 110.445ZM380.168 113.223C378.901 113.904 377.445 114.256 375.777 114.256V116.256C377.736 116.256 379.523 115.84 381.115 114.985L380.168 113.223ZM375.777 112.16C376.77 112.16 377.692 111.929 378.519 111.449L377.515 109.719C377.02 110.007 376.449 110.16 375.777 110.16V112.16ZM378.519 111.449C379.347 110.968 379.996 110.287 380.463 109.431L378.707 108.473C378.406 109.025 378.01 109.432 377.515 109.719L378.519 111.449ZM380.469 109.42C380.943 108.525 381.161 107.505 381.161 106.392H379.161C379.161 107.242 378.996 107.929 378.701 108.484L380.469 109.42ZM381.161 106.392C381.161 105.263 380.945 104.236 380.463 103.353L378.707 104.311C378.994 104.836 379.161 105.515 379.161 106.392H381.161ZM380.463 103.353C379.996 102.497 379.347 101.816 378.519 101.335L377.515 103.065C378.01 103.352 378.406 103.759 378.707 104.311L380.463 103.353ZM378.519 101.335C377.692 100.855 376.77 100.624 375.777 100.624V102.624C376.449 102.624 377.02 102.777 377.515 103.065L378.519 101.335ZM375.777 100.624C374.785 100.624 373.862 100.855 373.035 101.335L374.039 103.065C374.535 102.777 375.106 102.624 375.777 102.624V100.624ZM373.035 101.335C372.213 101.813 371.558 102.487 371.071 103.333L372.804 104.331C373.127 103.769 373.539 103.355 374.039 103.065L373.035 101.335ZM371.059 103.353C370.578 104.236 370.361 105.263 370.361 106.392H372.361C372.361 105.515 372.529 104.836 372.815 104.311L371.059 103.353ZM370.361 106.392C370.361 107.505 370.58 108.525 371.053 109.42L372.821 108.484C372.527 107.929 372.361 107.242 372.361 106.392H370.361ZM371.071 109.451C371.558 110.297 372.213 110.971 373.035 111.449L374.039 109.719C373.539 109.429 373.127 109.015 372.804 108.453L371.071 109.451ZM373.035 111.449C373.862 111.929 374.785 112.16 375.777 112.16V110.16C375.106 110.16 374.535 110.007 374.039 109.719L373.035 111.449ZM389.162 115H388.162V116H389.162V115ZM390.89 92.76L391.597 93.4671L391.604 93.4606L390.89 92.76ZM397.898 91.224L397.678 92.1995L397.684 92.2009L397.898 91.224ZM399.626 91.928L400.566 92.2691L400.831 91.5392L400.189 91.1018L399.626 91.928ZM398.314 95.544L397.745 96.3662L398.812 97.1047L399.254 95.8851L398.314 95.544ZM394.602 95.576L393.877 94.8872L393.876 94.8883L394.602 95.576ZM394.026 99.032H393.026V99.0618L393.028 99.0916L394.026 99.032ZM394.154 101.176H395.154V101.146L395.152 101.116L394.154 101.176ZM394.154 115V116H395.154V115H394.154ZM386.506 102.008H385.506V103.008H386.506V102.008ZM386.506 98.168V97.168H385.506V98.168H386.506ZM398.442 98.168H399.442V97.168H398.442V98.168ZM398.442 102.008V103.008H399.442V102.008H398.442ZM390.162 115V97.4H388.162V115H390.162ZM390.162 97.4C390.162 95.6694 390.668 94.3963 391.597 93.4671L390.183 92.0529C388.808 93.4277 388.162 95.248 388.162 97.4H390.162ZM391.604 93.4606C392.516 92.5311 393.87 92 395.818 92V90C393.5 90 391.568 90.6422 390.176 92.0594L391.604 93.4606ZM395.818 92C396.474 92 397.094 92.0675 397.678 92.1994L398.118 90.2486C397.38 90.0818 396.612 90 395.818 90V92ZM397.684 92.2009C398.27 92.329 398.72 92.5209 399.063 92.7542L400.189 91.1018C399.593 90.6951 398.892 90.4177 398.112 90.2471L397.684 92.2009ZM398.686 91.5869L397.374 95.2029L399.254 95.8851L400.566 92.2691L398.686 91.5869ZM398.883 94.7218C398.518 94.4689 398.116 94.2765 397.684 94.1415L397.088 96.0505C397.338 96.1288 397.555 96.2351 397.745 96.3662L398.883 94.7218ZM397.684 94.1415C397.24 94.0025 396.776 93.936 396.298 93.936V95.936C396.588 95.936 396.85 95.9761 397.088 96.0505L397.684 94.1415ZM396.298 93.936C395.367 93.936 394.513 94.2173 393.877 94.8872L395.327 96.2647C395.501 96.0814 395.779 95.936 396.298 95.936V93.936ZM393.876 94.8883C393.246 95.5528 393.026 96.4674 393.026 97.432H395.026C395.026 96.7326 395.19 96.4099 395.328 96.2637L393.876 94.8883ZM393.026 97.432V99.032H395.026V97.432H393.026ZM393.028 99.0916L393.156 101.236L395.152 101.116L395.024 98.9724L393.028 99.0916ZM393.154 101.176V115H395.154V101.176H393.154ZM394.154 114H389.162V116H394.154V114ZM387.506 102.008V98.168H385.506V102.008H387.506ZM386.506 99.168H398.442V97.168H386.506V99.168ZM397.442 98.168V102.008H399.442V98.168H397.442ZM398.442 101.008H386.506V103.008H398.442V101.008Z" fill="#041A40" mask="url(#path-2-outside-1_60_8)"/>
<g filter="url(#filter0_d_60_8)">
<rect x="170" y="129" width="471" height="75" fill="#041A40"/>
</g>
<path d="M201.656 178V155.6H205.944L215.48 171.408H213.208L222.584 155.6H226.84L226.904 178H222.04L222.008 163.056H222.904L215.416 175.632H213.08L205.432 163.056H206.52V178H201.656ZM242.171 178.384C238.992 178.384 236.507 177.499 234.715 175.728C232.923 173.957 232.027 171.429 232.027 168.144V155.6H237.211V167.952C237.211 170.085 237.648 171.621 238.523 172.56C239.397 173.499 240.624 173.968 242.203 173.968C243.781 173.968 245.008 173.499 245.883 172.56C246.757 171.621 247.194 170.085 247.194 167.952V155.6H252.315V168.144C252.315 171.429 251.419 173.957 249.627 175.728C247.835 177.499 245.349 178.384 242.171 178.384ZM257.437 178V155.6H262.621V173.776H273.853V178H257.437ZM279.296 178V159.824H272.128V155.6H291.648V159.824H284.48V178H279.296ZM294.437 178V155.6H299.621V178H294.437ZM303.945 170.992V166.992H313.001V170.992H303.945ZM317.281 178V155.6H321.569L331.105 171.408H328.833L338.209 155.6H342.465L342.529 178H337.665L337.633 163.056H338.529L331.041 175.632H328.705L321.057 163.056H322.145V178H317.281ZM352.612 164.624H363.396V168.656H352.612V164.624ZM352.996 173.84H365.188V178H347.844V155.6H364.772V159.76H352.996V173.84ZM369.312 178V155.6H379.488C381.92 155.6 384.064 156.069 385.92 157.008C387.776 157.925 389.227 159.216 390.272 160.88C391.318 162.544 391.84 164.517 391.84 166.8C391.84 169.061 391.318 171.035 390.272 172.72C389.227 174.384 387.776 175.685 385.92 176.624C384.064 177.541 381.92 178 379.488 178H369.312ZM374.496 173.744H379.232C380.726 173.744 382.016 173.467 383.104 172.912C384.214 172.336 385.067 171.525 385.664 170.48C386.283 169.435 386.592 168.208 386.592 166.8C386.592 165.371 386.283 164.144 385.664 163.12C385.067 162.075 384.214 161.275 383.104 160.72C382.016 160.144 380.726 159.856 379.232 159.856H374.496V173.744ZM395.75 178V155.6H400.934V178H395.75ZM403.306 178L413.29 155.6H418.41L428.426 178H422.986L414.794 158.224H416.842L408.618 178H403.306ZM408.298 173.2L409.674 169.264H421.194L422.602 173.2H408.298ZM450.532 178.384C448.804 178.384 447.194 178.107 445.7 177.552C444.228 176.976 442.948 176.165 441.86 175.12C440.772 174.075 439.919 172.848 439.3 171.44C438.703 170.032 438.404 168.485 438.404 166.8C438.404 165.115 438.703 163.568 439.3 162.16C439.919 160.752 440.772 159.525 441.86 158.48C442.97 157.435 444.26 156.635 445.732 156.08C447.204 155.504 448.815 155.216 450.564 155.216C452.506 155.216 454.255 155.557 455.812 156.24C457.391 156.901 458.714 157.883 459.78 159.184L456.452 162.256C455.684 161.381 454.831 160.731 453.892 160.304C452.954 159.856 451.93 159.632 450.82 159.632C449.775 159.632 448.815 159.803 447.94 160.144C447.066 160.485 446.308 160.976 445.668 161.616C445.028 162.256 444.527 163.013 444.164 163.888C443.823 164.763 443.652 165.733 443.652 166.8C443.652 167.867 443.823 168.837 444.164 169.712C444.527 170.587 445.028 171.344 445.668 171.984C446.308 172.624 447.066 173.115 447.94 173.456C448.815 173.797 449.775 173.968 450.82 173.968C451.93 173.968 452.954 173.755 453.892 173.328C454.831 172.88 455.684 172.208 456.452 171.312L459.78 174.384C458.714 175.685 457.391 176.677 455.812 177.36C454.255 178.043 452.495 178.384 450.532 178.384ZM463.281 178V155.6H472.977C474.982 155.6 476.71 155.931 478.161 156.592C479.612 157.232 480.732 158.16 481.521 159.376C482.31 160.592 482.705 162.043 482.705 163.728C482.705 165.392 482.31 166.832 481.521 168.048C480.732 169.243 479.612 170.16 478.161 170.8C476.71 171.44 474.982 171.76 472.977 171.76H466.161L468.465 169.488V178H463.281ZM477.521 178L471.921 169.872H477.457L483.121 178H477.521ZM468.465 170.064L466.161 167.632H472.689C474.289 167.632 475.484 167.291 476.273 166.608C477.062 165.904 477.457 164.944 477.457 163.728C477.457 162.491 477.062 161.531 476.273 160.848C475.484 160.165 474.289 159.824 472.689 159.824H466.161L468.465 157.36V170.064ZM491.58 164.624H502.364V168.656H491.58V164.624ZM491.964 173.84H504.156V178H486.812V155.6H503.74V159.76H491.964V173.84ZM505.337 178L515.321 155.6H520.441L530.457 178H525.017L516.825 158.224H518.873L510.649 178H505.337ZM510.329 173.2L511.705 169.264H523.225L524.633 173.2H510.329ZM536.296 178V159.824H529.128V155.6H548.648V159.824H541.48V178H536.296ZM551.437 178V155.6H556.621V178H551.437ZM572.817 178.384C571.047 178.384 569.404 178.096 567.889 177.52C566.396 176.944 565.095 176.133 563.985 175.088C562.897 174.043 562.044 172.816 561.425 171.408C560.828 170 560.529 168.464 560.529 166.8C560.529 165.136 560.828 163.6 561.425 162.192C562.044 160.784 562.908 159.557 564.017 158.512C565.127 157.467 566.428 156.656 567.921 156.08C569.415 155.504 571.036 155.216 572.785 155.216C574.556 155.216 576.177 155.504 577.649 156.08C579.143 156.656 580.433 157.467 581.521 158.512C582.631 159.557 583.495 160.784 584.113 162.192C584.732 163.579 585.041 165.115 585.041 166.8C585.041 168.464 584.732 170.011 584.113 171.44C583.495 172.848 582.631 174.075 581.521 175.12C580.433 176.144 579.143 176.944 577.649 177.52C576.177 178.096 574.567 178.384 572.817 178.384ZM572.785 173.968C573.788 173.968 574.705 173.797 575.537 173.456C576.391 173.115 577.137 172.624 577.777 171.984C578.417 171.344 578.908 170.587 579.249 169.712C579.612 168.837 579.793 167.867 579.793 166.8C579.793 165.733 579.612 164.763 579.249 163.888C578.908 163.013 578.417 162.256 577.777 161.616C577.159 160.976 576.423 160.485 575.569 160.144C574.716 159.803 573.788 159.632 572.785 159.632C571.783 159.632 570.855 159.803 570.001 160.144C569.169 160.485 568.433 160.976 567.793 161.616C567.153 162.256 566.652 163.013 566.289 163.888C565.948 164.763 565.777 165.733 565.777 166.8C565.777 167.845 565.948 168.816 566.289 169.712C566.652 170.587 567.143 171.344 567.761 171.984C568.401 172.624 569.148 173.115 570.001 173.456C570.855 173.797 571.783 173.968 572.785 173.968ZM588.937 178V155.6H593.225L606.441 171.728H604.361V155.6H609.481V178H605.225L591.977 161.872H594.057V178H588.937Z" fill="#FFB039"/>
<defs>
<filter id="filter0_d_60_8" x="166" y="129" width="475" height="79" filterUnits="userSpaceOnUse" color-interpolation-filters="sRGB">
<feFlood flood-opacity="0" result="BackgroundImageFix"/>
<feColorMatrix in="SourceAlpha" type="matrix" values="0 0 0 0 0 0 0 0 0 0 0 0 0 0 0 0 0 0 127 0" result="hardAlpha"/>
<feOffset dx="-4" dy="4"/>
<feComposite in2="hardAlpha" operator="out"/>
<feColorMatrix type="matrix" values="0 0 0 0 1 0 0 0 0 0.69 0 0 0 0 0.225 0 0 0 1 0"/>
<feBlend mode="normal" in2="BackgroundImageFix" result="effect1_dropShadow_60_8"/>
<feBlend mode="normal" in="SourceGraphic" in2="effect1_dropShadow_60_8" result="shape"/>
</filter>
</defs>
</svg>
